<svg width="490" height="94" viewBox="0 0 490 94" fill="none" xmlns="http://www.w3.org/2000/svg">
<path d="M68.794 92V44.128L53.562 77.792H40.25L25.018 44.128V92H0.0580006V1.12H27.322L46.906 43.872L66.618 1.12H93.754V92H68.794ZM148.988 92.768C141.735 92.768 135.505 91.5733 130.3 89.184C125.095 86.7947 120.828 83.5093 117.5 79.328C114.257 75.1467 111.868 70.368 110.332 64.992C108.796 59.5307 108.028 53.8133 108.028 47.84V1.12H132.988V47.84C132.988 50.8267 133.287 53.6853 133.884 56.416C134.481 59.1467 135.42 61.5787 136.7 63.712C137.98 65.8453 139.601 67.552 141.564 68.832C143.612 70.0267 146.087 70.624 148.988 70.624C151.975 70.624 154.492 70.0267 156.54 68.832C158.588 67.552 160.209 65.8453 161.404 63.712C162.684 61.4933 163.623 59.0187 164.22 56.288C164.817 53.5573 165.116 50.7413 165.116 47.84V1.12H190.076V47.84C190.076 54.1547 189.223 60.0427 187.516 65.504C185.895 70.9653 183.42 75.744 180.092 79.84C176.764 83.936 172.497 87.136 167.292 89.44C162.172 91.6587 156.071 92.768 148.988 92.768ZM259.473 30.816C259.473 30.816 258.748 30.3893 257.297 29.536C255.846 28.6827 253.926 27.744 251.537 26.72C249.148 25.6107 246.545 24.6293 243.729 23.776C240.913 22.9227 238.14 22.496 235.409 22.496C233.276 22.496 231.526 22.8373 230.161 23.52C228.796 24.2027 228.113 25.3547 228.113 26.976C228.113 28.512 228.796 29.7493 230.161 30.688C231.526 31.6267 233.446 32.48 235.921 33.248C238.481 34.016 241.51 34.9547 245.009 36.064C250.641 37.7707 255.505 39.7333 259.601 41.952C263.697 44.1707 266.854 47.0293 269.073 50.528C271.292 53.9413 272.401 58.5067 272.401 64.224C272.401 69.6853 271.42 74.2933 269.457 78.048C267.494 81.7173 264.849 84.6613 261.521 86.88C258.193 89.0987 254.481 90.72 250.385 91.744C246.289 92.6827 242.108 93.152 237.841 93.152C233.489 93.152 228.924 92.7253 224.145 91.872C219.452 90.9333 214.886 89.696 210.449 88.16C206.012 86.5387 201.958 84.6613 198.289 82.528L209.041 60.64C209.041 60.64 209.894 61.152 211.601 62.176C213.308 63.2 215.569 64.352 218.385 65.632C221.201 66.912 224.316 68.064 227.729 69.088C231.228 70.112 234.726 70.624 238.225 70.624C240.956 70.624 242.833 70.2827 243.857 69.6C244.966 68.832 245.521 67.8507 245.521 66.656C245.521 64.864 244.582 63.4987 242.705 62.56C240.828 61.536 238.353 60.5973 235.281 59.744C232.294 58.8053 228.966 57.7387 225.297 56.544C220.006 54.752 215.654 52.7467 212.241 50.528C208.828 48.224 206.31 45.536 204.689 42.464C203.068 39.3067 202.257 35.5093 202.257 31.072C202.257 24.3307 203.836 18.6987 206.993 14.176C210.15 9.65333 214.289 6.24 219.409 3.936C224.614 1.54666 230.204 0.351997 236.177 0.351997C240.614 0.351997 244.881 0.906665 248.977 2.016C253.158 3.04 257.041 4.31999 260.625 5.856C264.294 7.392 267.494 8.84266 270.225 10.208L259.473 30.816ZM283.433 92V1.12H308.393V92H283.433ZM319.066 45.792C319.066 40.2453 320.09 34.8267 322.138 29.536C324.271 24.16 327.343 19.296 331.354 14.944C335.365 10.592 340.229 7.13599 345.946 4.576C351.749 1.93066 358.277 0.607994 365.53 0.607994C374.234 0.607994 381.829 2.44266 388.314 6.112C394.799 9.696 399.621 14.4747 402.778 20.448L383.706 34.016C382.597 31.0293 380.975 28.7253 378.842 27.104C376.794 25.4827 374.533 24.3733 372.058 23.776C369.669 23.0933 367.322 22.752 365.018 22.752C361.434 22.752 358.319 23.4773 355.674 24.928C353.114 26.2933 350.981 28.128 349.274 30.432C347.653 32.736 346.415 35.296 345.562 38.112C344.794 40.928 344.41 43.744 344.41 46.56C344.41 49.7173 344.879 52.7467 345.818 55.648C346.757 58.5493 348.122 61.152 349.914 63.456C351.706 65.6747 353.882 67.424 356.442 68.704C359.087 69.984 362.031 70.624 365.274 70.624C367.578 70.624 369.925 70.2827 372.314 69.6C374.703 68.832 376.879 67.6373 378.842 66.016C380.805 64.3947 382.298 62.2187 383.322 59.488L403.674 71.648C401.882 76.0853 398.895 79.8827 394.714 83.04C390.533 86.1973 385.797 88.6293 380.506 90.336C375.215 91.9573 369.967 92.768 364.762 92.768C358.021 92.768 351.834 91.4453 346.202 88.8C340.655 86.0693 335.834 82.4853 331.738 78.048C327.727 73.5253 324.613 68.4907 322.394 62.944C320.175 57.312 319.066 51.5947 319.066 45.792ZM432.175 1.12H460.079L489.007 92H463.663L458.159 74.208H433.967L428.591 92H403.119L432.175 1.12ZM454.191 57.568L446.127 25.568L437.679 57.568H454.191Z" fill="url(#paint0_linear_19_158)"/>
<defs>
<linearGradient id="paint0_linear_19_158" x1="240.5" y1="-28" x2="240.5" y2="122" gradientUnits="userSpaceOnUse">
<stop stop-color="#28B4AB"/>
<stop offset="1" stop-color="#4F1B78"/>
</linearGradient>
</defs>
</svg>
